{
    "asset" : {
        "generator" : "Khronos glTF Blender I/O v1.2.75",
        "version" : "2.0"
    },
    "scene" : 0,
    "scenes" : [
        {
            "name" : "Scene",
            "nodes" : [
                0,
                1,
                2
            ]
        }
    ],
    "nodes" : [
        {
            "mesh" : 0,
            "name" : "node-0"
        },
        {
            "name" : "Light",
            "rotation" : [
                0.16907575726509094,
                0.7558803558349609,
                -0.27217137813568115,
                0.570947527885437
            ],
            "translation" : [
                4.076245307922363,
                5.903861999511719,
                -1.0054539442062378
            ]
        },
        {
            "name" : "Camera",
            "rotation" : [
                0.483536034822464,
                0.33687159419059753,
                -0.20870360732078552,
                0.7804827094078064
            ],
            "translation" : [
                7.358891487121582,
                4.958309173583984,
                6.925790786743164
            ]
        }
    ],
    "materials" : [
        {
            "doubleSided" : true,
            "emissiveFactor" : [
                0,
                0,
                0
            ],
            "name" : "02___Default",
            "pbrMetallicRoughness" : {
                "baseColorFactor" : [
                    0.0706000030040741,
                    0.007799999788403511,
                    0.0038999998942017555,
                    1
                ],
                "metallicFactor" : 0,
                "roughnessFactor" : 0.9699476361274719
            }
        },
        {
            "doubleSided" : true,
            "emissiveFactor" : [
                0,
                0,
                0
            ],
            "name" : "03___Default",
            "pbrMetallicRoughness" : {
                "baseColorFactor" : [
                    0.43529999256134033,
                    0.05490000173449516,
                    0.05490000173449516,
                    1
                ],
                "metallicFactor" : 0,
                "roughnessFactor" : 0.9699476361274719
            }
        },
        {
            "doubleSided" : true,
            "emissiveFactor" : [
                0,
                0,
                0
            ],
            "name" : "05___Default",
            "pbrMetallicRoughness" : {
                "baseColorFactor" : [
                    0.3961000144481659,
                    0.733299970626831,
                    0.0940999984741211,
                    1
                ],
                "metallicFactor" : 0,
                "roughnessFactor" : 0.9699476361274719
            }
        },
        {
            "doubleSided" : true,
            "emissiveFactor" : [
                0,
                0,
                0
            ],
            "name" : "04___Default",
            "pbrMetallicRoughness" : {
                "baseColorFactor" : [
                    0.06669999659061432,
                    0.27059999108314514,
                    0.019600000232458115,
                    1
                ],
                "metallicFactor" : 0,
                "roughnessFactor" : 0.9699476361274719
            }
        },
        {
            "doubleSided" : true,
            "emissiveFactor" : [
                0,
                0,
                0
            ],
            "name" : "06___Default",
            "pbrMetallicRoughness" : {
                "baseColorFactor" : [
                    0.5216000080108643,
                    0.015699999406933784,
                    0.015699999406933784,
                    1
                ],
                "metallicFactor" : 0,
                "roughnessFactor" : 0.9699476361274719
            }
        },
        {
            "doubleSided" : true,
            "emissiveFactor" : [
                0,
                0,
                0
            ],
            "name" : "07___Default",
            "pbrMetallicRoughness" : {
                "baseColorFactor" : [
                    0.5293999910354614,
                    0.5842999815940857,
                    0.29409998655319214,
                    1
                ],
                "metallicFactor" : 0,
                "roughnessFactor" : 0.9699476361274719
            }
        },
        {
            "doubleSided" : true,
            "emissiveFactor" : [
                0,
                0,
                0
            ],
            "name" : "01___Default",
            "pbrMetallicRoughness" : {
                "baseColorFactor" : [
                    0.694100022315979,
                    0.41179999709129333,
                    0.08240000158548355,
                    1
                ],
                "metallicFactor" : 0,
                "roughnessFactor" : 0.9699476361274719
            }
        },
        {
            "doubleSided" : true,
            "emissiveFactor" : [
                0,
                0,
                0
            ],
            "name" : "08___Default",
            "pbrMetallicRoughness" : {
                "baseColorFactor" : [
                    0.8392000198364258,
                    0.23919999599456787,
                    0.03530000150203705,
                    1
                ],
                "metallicFactor" : 0,
                "roughnessFactor" : 0.9699476361274719
            }
        },
        {
            "doubleSided" : true,
            "emissiveFactor" : [
                0,
                0,
                0
            ],
            "name" : "09___Default",
            "pbrMetallicRoughness" : {
                "baseColorFactor" : [
                    0.5881999731063843,
                    0.5881999731063843,
                    0.5881999731063843,
                    1
                ],
                "metallicFactor" : 0,
                "roughnessFactor" : 0.9699476361274719
            }
        }
    ],
    "meshes" : [
        {
            "name" : "buffer-0-mesh-0",
            "primitives" : [
                {
                    "attributes" : {
                        "POSITION" : 0,
                        "NORMAL" : 1,
                        "TEXCOORD_0" : 2
                    },
                    "indices" : 3,
                    "material" : 0
                },
                {
                    "attributes" : {
                        "POSITION" : 4,
                        "NORMAL" : 5,
                        "TEXCOORD_0" : 6
                    },
                    "indices" : 7,
                    "material" : 1
                },
                {
                    "attributes" : {
                        "POSITION" : 8,
                        "NORMAL" : 9,
                        "TEXCOORD_0" : 10
                    },
                    "indices" : 11,
                    "material" : 2
                },
                {
                    "attributes" : {
                        "POSITION" : 12,
                        "NORMAL" : 13,
                        "TEXCOORD_0" : 14
                    },
                    "indices" : 11,
                    "material" : 3
                },
                {
                    "attributes" : {
                        "POSITION" : 15,
                        "NORMAL" : 16,
                        "TEXCOORD_0" : 17
                    },
                    "indices" : 18,
                    "material" : 4
                },
                {
                    "attributes" : {
                        "POSITION" : 19,
                        "NORMAL" : 20,
                        "TEXCOORD_0" : 21
                    },
                    "indices" : 22,
                    "material" : 5
                },
                {
                    "attributes" : {
                        "POSITION" : 23,
                        "NORMAL" : 24,
                        "TEXCOORD_0" : 25
                    },
                    "indices" : 26,
                    "material" : 6
                },
                {
                    "attributes" : {
                        "POSITION" : 27,
                        "NORMAL" : 28,
                        "TEXCOORD_0" : 29
                    },
                    "indices" : 30,
                    "material" : 7
                },
                {
                    "attributes" : {
                        "POSITION" : 31,
                        "NORMAL" : 32,
                        "TEXCOORD_0" : 33
                    },
                    "indices" : 34,
                    "material" : 8
                }
            ]
        }
    ],
    "accessors" : [
        {
            "bufferView" : 0,
            "componentType" : 5126,
            "count" : 720,
            "max" : [
                18.401199340820312,
                26.195499420166016,
                15.778300285339355
            ],
            "min" : [
                -36.04130172729492,
                13.848799705505371,
                -10.041799545288086
            ],
            "type" : "VEC3"
        },
        {
            "bufferView" : 1,
            "componentType" : 5126,
            "count" : 720,
            "type" : "VEC3"
        },
        {
            "bufferView" : 2,
            "componentType" : 5126,
            "count" : 720,
            "type" : "VEC2"
        },
        {
            "bufferView" : 3,
            "componentType" : 5123,
            "count" : 720,
            "type" : "SCALAR"
        },
        {
            "bufferView" : 4,
            "componentType" : 5126,
            "count" : 144,
            "max" : [
                18.414199829101562,
                23.416400909423828,
                13.603699684143066
            ],
            "min" : [
                -36.04130172729492,
                16.40489959716797,
                -6.553699970245361
            ],
            "type" : "VEC3"
        },
        {
            "bufferView" : 5,
            "componentType" : 5126,
            "count" : 144,
            "type" : "VEC3"
        },
        {
            "bufferView" : 6,
            "componentType" : 5126,
            "count" : 144,
            "type" : "VEC2"
        },
        {
            "bufferView" : 7,
            "componentType" : 5123,
            "count" : 144,
            "type" : "SCALAR"
        },
        {
            "bufferView" : 8,
            "componentType" : 5126,
            "count" : 2736,
            "max" : [
                25.369199752807617,
                26.437599182128906,
                28.7455997467041
            ],
            "min" : [
                -28.459699630737305,
                13.736800193786621,
                -9.13290023803711
            ],
            "type" : "VEC3"
        },
        {
            "bufferView" : 9,
            "componentType" : 5126,
            "count" : 2736,
            "type" : "VEC3"
        },
        {
            "bufferView" : 10,
            "componentType" : 5126,
            "count" : 2736,
            "type" : "VEC2"
        },
        {
            "bufferView" : 11,
            "componentType" : 5123,
            "count" : 2736,
            "type" : "SCALAR"
        },
        {
            "bufferView" : 12,
            "componentType" : 5126,
            "count" : 2736,
            "max" : [
                26.166400909423828,
                26.437599182128906,
                28.7455997467041
            ],
            "min" : [
                -27.662500381469727,
                13.736800193786621,
                -9.13290023803711
            ],
            "type" : "VEC3"
        },
        {
            "bufferView" : 13,
            "componentType" : 5126,
            "count" : 2736,
            "type" : "VEC3"
        },
        {
            "bufferView" : 14,
            "componentType" : 5126,
            "count" : 2736,
            "type" : "VEC2"
        },
        {
            "bufferView" : 15,
            "componentType" : 5126,
            "count" : 8064,
            "max" : [
                22.864099502563477,
                25.3218994140625,
                28.77199935913086
            ],
            "min" : [
                -28.917400360107422,
                13.904199600219727,
                -9.066900253295898
            ],
            "type" : "VEC3"
        },
        {
            "bufferView" : 16,
            "componentType" : 5126,
            "count" : 8064,
            "type" : "VEC3"
        },
        {
            "bufferView" : 17,
            "componentType" : 5126,
            "count" : 8064,
            "type" : "VEC2"
        },
        {
            "bufferView" : 18,
            "componentType" : 5123,
            "count" : 8064,
            "type" : "SCALAR"
        },
        {
            "bufferView" : 19,
            "componentType" : 5126,
            "count" : 6120,
            "max" : [
                25.45479965209961,
                24.892200469970703,
                28.925100326538086
            ],
            "min" : [
                -22.748699188232422,
                13.736800193786621,
                -9.066900253295898
            ],
            "type" : "VEC3"
        },
        {
            "bufferView" : 20,
            "componentType" : 5126,
            "count" : 6120,
            "type" : "VEC3"
        },
        {
            "bufferView" : 21,
            "componentType" : 5126,
            "count" : 6120,
            "type" : "VEC2"
        },
        {
            "bufferView" : 22,
            "componentType" : 5123,
            "count" : 6120,
            "type" : "SCALAR"
        },
        {
            "bufferView" : 23,
            "componentType" : 5126,
            "count" : 1908,
            "max" : [
                51.1171989440918,
                20.817699432373047,
                24.080900192260742
            ],
            "min" : [
                -60.19139862060547,
                19.37339973449707,
                -3.842900037765503
            ],
            "type" : "VEC3"
        },
        {
            "bufferView" : 24,
            "componentType" : 5126,
            "count" : 1908,
            "type" : "VEC3"
        },
        {
            "bufferView" : 25,
            "componentType" : 5126,
            "count" : 1908,
            "type" : "VEC2"
        },
        {
            "bufferView" : 26,
            "componentType" : 5123,
            "count" : 1908,
            "type" : "SCALAR"
        },
        {
            "bufferView" : 27,
            "componentType" : 5126,
            "count" : 864,
            "max" : [
                18.414199829101562,
                26.195499420166016,
                29.231700897216797
            ],
            "min" : [
                -35.21220016479492,
                13.848799705505371,
                -10.041799545288086
            ],
            "type" : "VEC3"
        },
        {
            "bufferView" : 28,
            "componentType" : 5126,
            "count" : 864,
            "type" : "VEC3"
        },
        {
            "bufferView" : 29,
            "componentType" : 5126,
            "count" : 864,
            "type" : "VEC2"
        },
        {
            "bufferView" : 30,
            "componentType" : 5123,
            "count" : 864,
            "type" : "SCALAR"
        },
        {
            "bufferView" : 31,
            "componentType" : 5126,
            "count" : 23616,
            "max" : [
                48.890201568603516,
                19.238100051879883,
                65.82279968261719
            ],
            "min" : [
                -61.23310089111328,
                11.666099548339844,
                -44.30039978027344
            ],
            "type" : "VEC3"
        },
        {
            "bufferView" : 32,
            "componentType" : 5126,
            "count" : 23616,
            "type" : "VEC3"
        },
        {
            "bufferView" : 33,
            "componentType" : 5126,
            "count" : 23616,
            "type" : "VEC2"
        },
        {
            "bufferView" : 34,
            "componentType" : 5123,
            "count" : 23616,
            "type" : "SCALAR"
        }
    ],
    "bufferViews" : [
        {
            "buffer" : 0,
            "byteLength" : 8640,
            "byteOffset" : 0
        },
        {
            "buffer" : 0,
            "byteLength" : 8640,
            "byteOffset" : 8640
        },
        {
            "buffer" : 0,
            "byteLength" : 5760,
            "byteOffset" : 17280
        },
        {
            "buffer" : 0,
            "byteLength" : 1440,
            "byteOffset" : 23040
        },
        {
            "buffer" : 0,
            "byteLength" : 1728,
            "byteOffset" : 24480
        },
        {
            "buffer" : 0,
            "byteLength" : 1728,
            "byteOffset" : 26208
        },
        {
            "buffer" : 0,
            "byteLength" : 1152,
            "byteOffset" : 27936
        },
        {
            "buffer" : 0,
            "byteLength" : 288,
            "byteOffset" : 29088
        },
        {
            "buffer" : 0,
            "byteLength" : 32832,
            "byteOffset" : 29376
        },
        {
            "buffer" : 0,
            "byteLength" : 32832,
            "byteOffset" : 62208
        },
        {
            "buffer" : 0,
            "byteLength" : 21888,
            "byteOffset" : 95040
        },
        {
            "buffer" : 0,
            "byteLength" : 5472,
            "byteOffset" : 116928
        },
        {
            "buffer" : 0,
            "byteLength" : 32832,
            "byteOffset" : 122400
        },
        {
            "buffer" : 0,
            "byteLength" : 32832,
            "byteOffset" : 155232
        },
        {
            "buffer" : 0,
            "byteLength" : 21888,
            "byteOffset" : 188064
        },
        {
            "buffer" : 0,
            "byteLength" : 96768,
            "byteOffset" : 209952
        },
        {
            "buffer" : 0,
            "byteLength" : 96768,
            "byteOffset" : 306720
        },
        {
            "buffer" : 0,
            "byteLength" : 64512,
            "byteOffset" : 403488
        },
        {
            "buffer" : 0,
            "byteLength" : 16128,
            "byteOffset" : 468000
        },
        {
            "buffer" : 0,
            "byteLength" : 73440,
            "byteOffset" : 484128
        },
        {
            "buffer" : 0,
            "byteLength" : 73440,
            "byteOffset" : 557568
        },
        {
            "buffer" : 0,
            "byteLength" : 48960,
            "byteOffset" : 631008
        },
        {
            "buffer" : 0,
            "byteLength" : 12240,
            "byteOffset" : 679968
        },
        {
            "buffer" : 0,
            "byteLength" : 22896,
            "byteOffset" : 692208
        },
        {
            "buffer" : 0,
            "byteLength" : 22896,
            "byteOffset" : 715104
        },
        {
            "buffer" : 0,
            "byteLength" : 15264,
            "byteOffset" : 738000
        },
        {
            "buffer" : 0,
            "byteLength" : 3816,
            "byteOffset" : 753264
        },
        {
            "buffer" : 0,
            "byteLength" : 10368,
            "byteOffset" : 757080
        },
        {
            "buffer" : 0,
            "byteLength" : 10368,
            "byteOffset" : 767448
        },
        {
            "buffer" : 0,
            "byteLength" : 6912,
            "byteOffset" : 777816
        },
        {
            "buffer" : 0,
            "byteLength" : 1728,
            "byteOffset" : 784728
        },
        {
            "buffer" : 0,
            "byteLength" : 283392,
            "byteOffset" : 786456
        },
        {
            "buffer" : 0,
            "byteLength" : 283392,
            "byteOffset" : 1069848
        },
        {
            "buffer" : 0,
            "byteLength" : 188928,
            "byteOffset" : 1353240
        },
        {
            "buffer" : 0,
            "byteLength" : 47232,
            "byteOffset" : 1542168
        }
    ],
    "buffers" : [
        {
            "byteLength" : 1589400,
            "uri" : "data:application/octet-stream;base64,"
        }
    ]
}
