{
    "asset" : {
        "generator" : "Khronos glTF Blender I/O v1.2.75",
        "version" : "2.0"
    },
    "scene" : 0,
    "scenes" : [
        {
            "name" : "Scene",
            "nodes" : [
                0
            ]
        }
    ],
    "nodes" : [
        {
            "mesh" : 0,
            "name" : "node-0"
        }
    ],
    "materials" : [
        {
            "doubleSided" : true,
            "emissiveFactor" : [
                0,
                0,
                0
            ],
            "name" : "02___Default",
            "pbrMetallicRoughness" : {
                "baseColorFactor" : [
                    0.0706000030040741,
                    0.007799999788403511,
                    0.0038999998942017555,
                    1
                ],
                "metallicFactor" : 0,
                "roughnessFactor" : 0.9699476361274719
            }
        },
        {
            "doubleSided" : true,
            "emissiveFactor" : [
                0,
                0,
                0
            ],
            "name" : "03___Default",
            "pbrMetallicRoughness" : {
                "baseColorFactor" : [
                    0.43529999256134033,
                    0.05490000173449516,
                    0.05490000173449516,
                    1
                ],
                "metallicFactor" : 0,
                "roughnessFactor" : 0.9699476361274719
            }
        },
        {
            "doubleSided" : true,
            "emissiveFactor" : [
                0,
                0,
                0
            ],
            "name" : "05___Default",
            "pbrMetallicRoughness" : {
                "baseColorFactor" : [
                    0.3961000144481659,
                    0.733299970626831,
                    0.0940999984741211,
                    1
                ],
                "metallicFactor" : 0,
                "roughnessFactor" : 0.9699476361274719
            }
        },
        {
            "doubleSided" : true,
            "emissiveFactor" : [
                0,
                0,
                0
            ],
            "name" : "04___Default",
            "pbrMetallicRoughness" : {
                "baseColorFactor" : [
                    0.06669999659061432,
                    0.27059999108314514,
                    0.019600000232458115,
                    1
                ],
                "metallicFactor" : 0,
                "roughnessFactor" : 0.9699476361274719
            }
        },
        {
            "doubleSided" : true,
            "emissiveFactor" : [
                0,
                0,
                0
            ],
            "name" : "06___Default",
            "pbrMetallicRoughness" : {
                "baseColorFactor" : [
                    0.5216000080108643,
                    0.015699999406933784,
                    0.015699999406933784,
                    1
                ],
                "metallicFactor" : 0,
                "roughnessFactor" : 0.9699476361274719
            }
        },
        {
            "doubleSided" : true,
            "emissiveFactor" : [
                0,
                0,
                0
            ],
            "name" : "07___Default",
            "pbrMetallicRoughness" : {
                "baseColorFactor" : [
                    0.5293999910354614,
                    0.5842999815940857,
                    0.29409998655319214,
                    1
                ],
                "metallicFactor" : 0,
                "roughnessFactor" : 0.9699476361274719
            }
        },
        {
            "doubleSided" : true,
            "emissiveFactor" : [
                0,
                0,
                0
            ],
            "name" : "01___Default",
            "pbrMetallicRoughness" : {
                "baseColorFactor" : [
                    0.694100022315979,
                    0.41179999709129333,
                    0.08240000158548355,
                    1
                ],
                "metallicFactor" : 0,
                "roughnessFactor" : 0.9699476361274719
            }
        },
        {
            "doubleSided" : true,
            "emissiveFactor" : [
                0,
                0,
                0
            ],
            "name" : "08___Default",
            "pbrMetallicRoughness" : {
                "baseColorFactor" : [
                    0.8392000198364258,
                    0.23919999599456787,
                    0.03530000150203705,
                    1
                ],
                "metallicFactor" : 0,
                "roughnessFactor" : 0.9699476361274719
            }
        },
        {
            "doubleSided" : true,
            "emissiveFactor" : [
                0,
                0,
                0
            ],
            "name" : "09___Default",
            "pbrMetallicRoughness" : {
                "baseColorFactor" : [
                    0.5881999731063843,
                    0.5881999731063843,
                    0.5881999731063843,
                    1
                ],
                "metallicFactor" : 0,
                "roughnessFactor" : 0.9699476361274719
            }
        }
    ],
    "meshes" : [
        {
            "name" : "buffer-0-mesh-0",
            "primitives" : [
                {
                    "attributes" : {
                        "POSITION" : 0,
                        "NORMAL" : 1,
                        "TEXCOORD_0" : 2
                    },
                    "indices" : 3,
                    "material" : 0
                },
                {
                    "attributes" : {
                        "POSITION" : 4,
                        "NORMAL" : 5,
                        "TEXCOORD_0" : 6
                    },
                    "indices" : 7,
                    "material" : 1
                },
                {
                    "attributes" : {
                        "POSITION" : 8,
                        "NORMAL" : 9,
                        "TEXCOORD_0" : 10
                    },
                    "indices" : 11,
                    "material" : 2
                },
                {
                    "attributes" : {
                        "POSITION" : 12,
                        "NORMAL" : 13,
                        "TEXCOORD_0" : 14
                    },
                    "indices" : 11,
                    "material" : 3
                },
                {
                    "attributes" : {
                        "POSITION" : 15,
                        "NORMAL" : 16,
                        "TEXCOORD_0" : 17
                    },
                    "indices" : 18,
                    "material" : 4
                },
                {
                    "attributes" : {
                        "POSITION" : 19,
                        "NORMAL" : 20,
                        "TEXCOORD_0" : 21
                    },
                    "indices" : 22,
                    "material" : 5
                },
                {
                    "attributes" : {
                        "POSITION" : 23,
                        "NORMAL" : 24,
                        "TEXCOORD_0" : 25
                    },
                    "indices" : 26,
                    "material" : 6
                },
                {
                    "attributes" : {
                        "POSITION" : 27,
                        "NORMAL" : 28,
                        "TEXCOORD_0" : 29
                    },
                    "indices" : 30,
                    "material" : 7
                },
                {
                    "attributes" : {
                        "POSITION" : 31,
                        "NORMAL" : 32,
                        "TEXCOORD_0" : 33
                    },
                    "indices" : 34,
                    "material" : 8
                }
            ]
        }
    ],
    "accessors" : [
        {
            "bufferView" : 0,
            "componentType" : 5126,
            "count" : 720,
            "max" : [
                0.08051036298274994,
                0.05463647097349167,
                0.019930776208639145
            ],
            "min" : [
                -0.11516615003347397,
                0.010260112583637238,
                -0.07287146896123886
            ],
            "type" : "VEC3"
        },
        {
            "bufferView" : 1,
            "componentType" : 5126,
            "count" : 720,
            "type" : "VEC3"
        },
        {
            "bufferView" : 2,
            "componentType" : 5126,
            "count" : 720,
            "type" : "VEC2"
        },
        {
            "bufferView" : 3,
            "componentType" : 5123,
            "count" : 720,
            "type" : "SCALAR"
        },
        {
            "bufferView" : 4,
            "componentType" : 5126,
            "count" : 144,
            "max" : [
                0.08055704832077026,
                0.04464785009622574,
                0.012114856392145157
            ],
            "min" : [
                -0.11516615003347397,
                0.019447213038802147,
                -0.06033461168408394
            ],
            "type" : "VEC3"
        },
        {
            "bufferView" : 5,
            "componentType" : 5126,
            "count" : 144,
            "type" : "VEC3"
        },
        {
            "bufferView" : 6,
            "componentType" : 5126,
            "count" : 144,
            "type" : "VEC2"
        },
        {
            "bufferView" : 7,
            "componentType" : 5123,
            "count" : 144,
            "type" : "SCALAR"
        },
        {
            "bufferView" : 8,
            "componentType" : 5126,
            "count" : 2736,
            "max" : [
                0.10555463284254074,
                0.05550659820437431,
                0.06653764843940735
            ],
            "min" : [
                -0.08791643381118774,
                0.00985756516456604,
                -0.06960474699735641
            ],
            "type" : "VEC3"
        },
        {
            "bufferView" : 9,
            "componentType" : 5126,
            "count" : 2736,
            "type" : "VEC3"
        },
        {
            "bufferView" : 10,
            "componentType" : 5126,
            "count" : 2736,
            "type" : "VEC2"
        },
        {
            "bufferView" : 11,
            "componentType" : 5123,
            "count" : 2736,
            "type" : "SCALAR"
        },
        {
            "bufferView" : 12,
            "componentType" : 5126,
            "count" : 2736,
            "max" : [
                0.10841990262269974,
                0.05550659820437431,
                0.06653764843940735
            ],
            "min" : [
                -0.08505116403102875,
                0.00985756516456604,
                -0.06960474699735641
            ],
            "type" : "VEC3"
        },
        {
            "bufferView" : 13,
            "componentType" : 5126,
            "count" : 2736,
            "type" : "VEC3"
        },
        {
            "bufferView" : 14,
            "componentType" : 5126,
            "count" : 2736,
            "type" : "VEC2"
        },
        {
            "bufferView" : 15,
            "componentType" : 5126,
            "count" : 8064,
            "max" : [
                0.096550852060318,
                0.05149656906723976,
                0.06663256883621216
            ],
            "min" : [
                -0.08956150710582733,
                0.010459224693477154,
                -0.06936752796173096
            ],
            "type" : "VEC3"
        },
        {
            "bufferView" : 16,
            "componentType" : 5126,
            "count" : 8064,
            "type" : "VEC3"
        },
        {
            "bufferView" : 17,
            "componentType" : 5126,
            "count" : 8064,
            "type" : "VEC2"
        },
        {
            "bufferView" : 18,
            "componentType" : 5123,
            "count" : 8064,
            "type" : "SCALAR"
        },
        {
            "bufferView" : 19,
            "componentType" : 5126,
            "count" : 6120,
            "max" : [
                0.10586234927177429,
                0.049952175468206406,
                0.06718287616968155
            ],
            "min" : [
                -0.06739012151956558,
                0.00985756516456604,
                -0.06936752796173096
            ],
            "type" : "VEC3"
        },
        {
            "bufferView" : 20,
            "componentType" : 5126,
            "count" : 6120,
            "type" : "VEC3"
        },
        {
            "bufferView" : 21,
            "componentType" : 5126,
            "count" : 6120,
            "type" : "VEC2"
        },
        {
            "bufferView" : 22,
            "componentType" : 5123,
            "count" : 6120,
            "type" : "SCALAR"
        },
        {
            "bufferView" : 23,
            "componentType" : 5126,
            "count" : 1908,
            "max" : [
                0.19809778034687042,
                0.03530764952301979,
                0.04977187141776085
            ],
            "min" : [
                -0.20196612179279327,
                0.030116552487015724,
                -0.050591468811035156
            ],
            "type" : "VEC3"
        },
        {
            "bufferView" : 24,
            "componentType" : 5126,
            "count" : 1908,
            "type" : "VEC3"
        },
        {
            "bufferView" : 25,
            "componentType" : 5126,
            "count" : 1908,
            "type" : "VEC2"
        },
        {
            "bufferView" : 26,
            "componentType" : 5123,
            "count" : 1908,
            "type" : "SCALAR"
        },
        {
            "bufferView" : 27,
            "componentType" : 5126,
            "count" : 864,
            "max" : [
                0.08055704832077026,
                0.05463647097349167,
                0.06828481703996658
            ],
            "min" : [
                -0.11218621581792831,
                0.010260112583637238,
                -0.07287146896123886
            ],
            "type" : "VEC3"
        },
        {
            "bufferView" : 28,
            "componentType" : 5126,
            "count" : 864,
            "type" : "VEC3"
        },
        {
            "bufferView" : 29,
            "componentType" : 5126,
            "count" : 864,
            "type" : "VEC2"
        },
        {
            "bufferView" : 30,
            "componentType" : 5123,
            "count" : 864,
            "type" : "SCALAR"
        },
        {
            "bufferView" : 31,
            "componentType" : 5126,
            "count" : 23616,
            "max" : [
                0.19009356200695038,
                0.02963026985526085,
                0.1998000591993332
            ],
            "min" : [
                -0.20571020245552063,
                0.0024150738026946783,
                -0.1960032433271408
            ],
            "type" : "VEC3"
        },
        {
            "bufferView" : 32,
            "componentType" : 5126,
            "count" : 23616,
            "type" : "VEC3"
        },
        {
            "bufferView" : 33,
            "componentType" : 5126,
            "count" : 23616,
            "type" : "VEC2"
        },
        {
            "bufferView" : 34,
            "componentType" : 5123,
            "count" : 23616,
            "type" : "SCALAR"
        }
    ],
    "bufferViews" : [
        {
            "buffer" : 0,
            "byteLength" : 8640,
            "byteOffset" : 0
        },
        {
            "buffer" : 0,
            "byteLength" : 8640,
            "byteOffset" : 8640
        },
        {
            "buffer" : 0,
            "byteLength" : 5760,
            "byteOffset" : 17280
        },
        {
            "buffer" : 0,
            "byteLength" : 1440,
            "byteOffset" : 23040
        },
        {
            "buffer" : 0,
            "byteLength" : 1728,
            "byteOffset" : 24480
        },
        {
            "buffer" : 0,
            "byteLength" : 1728,
            "byteOffset" : 26208
        },
        {
            "buffer" : 0,
            "byteLength" : 1152,
            "byteOffset" : 27936
        },
        {
            "buffer" : 0,
            "byteLength" : 288,
            "byteOffset" : 29088
        },
        {
            "buffer" : 0,
            "byteLength" : 32832,
            "byteOffset" : 29376
        },
        {
            "buffer" : 0,
            "byteLength" : 32832,
            "byteOffset" : 62208
        },
        {
            "buffer" : 0,
            "byteLength" : 21888,
            "byteOffset" : 95040
        },
        {
            "buffer" : 0,
            "byteLength" : 5472,
            "byteOffset" : 116928
        },
        {
            "buffer" : 0,
            "byteLength" : 32832,
            "byteOffset" : 122400
        },
        {
            "buffer" : 0,
            "byteLength" : 32832,
            "byteOffset" : 155232
        },
        {
            "buffer" : 0,
            "byteLength" : 21888,
            "byteOffset" : 188064
        },
        {
            "buffer" : 0,
            "byteLength" : 96768,
            "byteOffset" : 209952
        },
        {
            "buffer" : 0,
            "byteLength" : 96768,
            "byteOffset" : 306720
        },
        {
            "buffer" : 0,
            "byteLength" : 64512,
            "byteOffset" : 403488
        },
        {
            "buffer" : 0,
            "byteLength" : 16128,
            "byteOffset" : 468000
        },
        {
            "buffer" : 0,
            "byteLength" : 73440,
            "byteOffset" : 484128
        },
        {
            "buffer" : 0,
            "byteLength" : 73440,
            "byteOffset" : 557568
        },
        {
            "buffer" : 0,
            "byteLength" : 48960,
            "byteOffset" : 631008
        },
        {
            "buffer" : 0,
            "byteLength" : 12240,
            "byteOffset" : 679968
        },
        {
            "buffer" : 0,
            "byteLength" : 22896,
            "byteOffset" : 692208
        },
        {
            "buffer" : 0,
            "byteLength" : 22896,
            "byteOffset" : 715104
        },
        {
            "buffer" : 0,
            "byteLength" : 15264,
            "byteOffset" : 738000
        },
        {
            "buffer" : 0,
            "byteLength" : 3816,
            "byteOffset" : 753264
        },
        {
            "buffer" : 0,
            "byteLength" : 10368,
            "byteOffset" : 757080
        },
        {
            "buffer" : 0,
            "byteLength" : 10368,
            "byteOffset" : 767448
        },
        {
            "buffer" : 0,
            "byteLength" : 6912,
            "byteOffset" : 777816
        },
        {
            "buffer" : 0,
            "byteLength" : 1728,
            "byteOffset" : 784728
        },
        {
            "buffer" : 0,
            "byteLength" : 283392,
            "byteOffset" : 786456
        },
        {
            "buffer" : 0,
            "byteLength" : 283392,
            "byteOffset" : 1069848
        },
        {
            "buffer" : 0,
            "byteLength" : 188928,
            "byteOffset" : 1353240
        },
        {
            "buffer" : 0,
            "byteLength" : 47232,
            "byteOffset" : 1542168
        }
    ],
    "buffers" : [
        {
            "byteLength" : 1589400,
            "uri" : "data:application/octet-stream;base64,"
        }
    ]
}
