<svg xmlns="http://www.w3.org/2000/svg" contentScriptType="text/ecmascript" version="1.0" viewBox="96.2 142.02 184.75 43.67"><path d="M97.776 145.96h-.156.03s-.03.028-.12.028c-.157.031-.246.062-.309.062-.121.063-.215.125-.34.184-.12.094-.215.187-.273.246-.125.125-.188.219-.219.34-.059.125-.121.246-.152.371-.032 8.828-.032 15.441-.032 19.871 0 .309.094.582.34.828.215.246.493.403.86.492.46.125.894.094 1.261-.152.372-.246.586-.676.676-1.293v-9.352c0-.398.188-.707.555-.953.371-.214.648 0 .832.618 1.32 4.55 2.336 7.964 3.016 10.242l.058.183c0 .063.031.125.094.188l.246.305.309.246c.09.062.214.125.367.125a.81.81 0 0 0 .37.09h2.306c.062 0 .156 0 .214-.028.063 0 .125 0 .188-.031a1.85 1.85 0 0 0 .367-.156c.125-.059.215-.121.309-.215a.828.828 0 0 0 .246-.309c.062-.09.12-.215.183-.336 1.293-4.43 2.246-7.754 2.922-10 .125-.367.371-.582.77-.676.37-.062.554.184.617.707v27.04c0 .093 0 .156.031.214.09.309.336.555.738.68.184.121.43.152.676.152.184 0 .367-.03.582-.093.403-.09.68-.274.864-.52.152-.246.246-.492.246-.738v-36.977l-.063-.183c-.062-.125-.09-.246-.152-.371-.063-.121-.156-.215-.215-.336-.094-.063-.188-.157-.309-.246-.125-.063-.214-.094-.34-.157a1.762 1.762 0 0 0-.398-.062h-.371c-.613 0-1.074-.028-1.352-.028h-.214l-.184.06c-.125.062-.246.093-.371.155a1.068 1.068 0 0 0-.309.215.78.78 0 0 0-.246.309c-.058.12-.12.215-.183.336a2487.421 2487.421 0 0 0-4.368 14.89c-.246.614-.617.891-1.078.797-.492-.09-.8-.367-.922-.828a3901.008 3901.008 0 0 1-4.335-14.797c-.032-.062-.063-.125-.063-.215-.031-.062-.062-.093-.094-.156a3.115 3.115 0 0 1-.277-.305 1.59 1.59 0 0 0-.277-.246c-.122-.062-.247-.093-.368-.156-.125 0-.277-.031-.398-.059zm18.394-2.523h-3.754c-.644 0-1.168.121-1.535.367-.433.246-.738.524-.957.832a4.09 4.09 0 0 0-.46.985c-.122.34-.184.554-.247.675v.032l-.031.062c-1.23 4.246-2.184 7.445-2.797 9.567v.03l-.031.032v.184c0 .03 0 .062.031.062l.063.059.058.062c0 .032.031.032.063.032h.093c0 .03.032.03.059 0h.094l.062-.063.063-.059s0-.03.027-.062c0 0 0-.031.031-.094v-.062c1.23-4.211 2.184-7.383 2.801-9.504l.031-.031v-.032c.063-.183.153-.43.246-.707.063-.277.184-.554.368-.8.187-.247.402-.461.707-.645.277-.184.71-.277 1.261-.277h3.754c.586 0 1.016.125 1.325.308.277.184.492.43.613.676.125.246.215.523.246.77 0 .246.031.43.031.554v25.594c0 .031.031.059.031.059l.063.062c0 .031 0 .063.059.063 0 .03.03.03.062.03 0 .032.031.032.063.032h.093s.028-.031.09-.031c0 0 .031-.031.063-.031l.062-.063s0-.031.031-.09c0 0 0-.031.028-.062V146.39c0-.094-.028-.308-.028-.648a4.722 4.722 0 0 0-.308-.985c-.184-.336-.492-.644-.895-.922-.398-.246-.953-.398-1.629-.398zM124.262 145.96c-.031 0-.062.028-.125.028-.062 0-.062 0-.031-.028h.031s-.031.028-.121.028c-.125.031-.215.062-.277.062-.125.063-.246.157-.34.215a.905.905 0 0 0-.309.246c-.09.094-.152.188-.215.309-.058.125-.12.246-.152.371 0 8.86-.031 15.473-.031 19.871v.184c0 .093.031.152.062.214.032.125.09.215.153.34.062.121.125.246.214.336a.822.822 0 0 0 .31.246c.093.063.214.125.339.157.121.062.246.09.398.09.125 0 .246 0 .371-.028 3.938.027 6.918.027 8.918.027.555 0 .864-.492.926-1.503v-.188c0-.86-.37-1.352-1.047-1.445h-6.03c-.247 0-.552-.032-.923-.153-.367-.125-.554-.586-.554-1.414v-3.507c0-.372.062-.739.187-1.11.09-.367.52-.582 1.258-.582h4.215c.277.031.492-.094.68-.402.12-.246.214-.551.245-.922a2.808 2.808 0 0 0-.187-1.23c-.184-.368-.43-.587-.738-.587h-4.184c-.246 0-.523-.027-.89-.152-.399-.12-.586-.613-.586-1.476v-3.168c0-.309.062-.676.187-1.079.121-.367.582-.582 1.414-.582h5.938c.214 0 .398-.125.582-.37.156-.247.246-.614.308-1.106 0-.492-.062-.895-.215-1.2a1.036 1.036 0 0 0-.8-.464c-4.493 0-7.504 0-8.98-.028zm6.152-2.187h-6.89c-.34 0-.68.062-1.016.187a2.255 2.255 0 0 0-.984.645c-.309.309-.555.707-.738 1.2-.215.491-.309 1.109-.309 1.784v16.735c0 .031 0 .031.031.031 0 .031 0 .063.031.09 0 .031 0 .062.032.062 0 .032.031.032.058.032l.063.062h.156c.027 0 .059 0 .09-.031 0 0 .031 0 .062-.031l.063-.063s.031-.031.031-.058c0 0 .027-.032.027-.094v-16.735c0-.617.063-1.136.247-1.57.156-.398.37-.707.617-.953.215-.246.46-.398.77-.523.245-.06.523-.122.769-.122h6.949s.031 0 .031-.03c.032 0 .063 0 .094-.032 0 0 .031 0 .063-.031l.058-.063s0-.027.031-.058v-.247l-.058-.062-.125-.125zM154.5 145.96h-8.613c-1.907 0-2.985 0-3.168-.03h-.063c-.8.03-1.2.55-1.2 1.534v.032c0 1.078.493 1.601 1.446 1.57h2.555c.246 0 .613.121 1.074.309.434.214.649.77.68 1.66v15.996c0 1.078.52 1.629 1.597 1.629 1.047 0 1.57-.582 1.54-1.754v-16.149c0-.367.062-.738.183-1.105.094-.371.524-.555 1.262-.555h2.828c.062 0 .125 0 .187-.031.06 0 .122-.031.215-.031.555-.063.828-.586.828-1.57v-.06c0-.952-.46-1.445-1.351-1.445zm1.66 4.551h-2.336c-.371 0-.707.094-.953.215a1.577 1.577 0 0 0-.586.492c-.152.215-.246.43-.309.649-.062.183-.062.367-.062.52v20.058c0 .031.031.062.031.062 0 .059.031.09.063.09 0 .031.031.031.062.031 0 .032.031.032.063.032 0 .031.027.031.09.031h.062c.031 0 .063 0 .094-.031 0 0 .027 0 .058-.032l.063-.062s.031-.031.031-.059c0-.03.031-.062.031-.093v-20.055c0-.063 0-.188.032-.34.03-.125.09-.277.183-.398.094-.125.215-.22.367-.34.157-.063.372-.125.68-.125h2.461s.031-.028.059-.028l.062-.062s.031 0 .063-.063c0 0 .03-.03.03-.062 0 0 .032-.031.032-.059v-.093c-.031 0-.031-.032-.031-.094l-.063-.059s-.03-.031-.03-.062c-.032 0-.063 0-.09-.031-.032 0-.063 0-.063-.032zM167.82 146.02h-.278a1.495 1.495 0 0 0-.277.093c-.122.062-.247.12-.336.183a.869.869 0 0 0-.309.247 1.091 1.091 0 0 0-.215.308 1.85 1.85 0 0 0-.156.367c-.246.895-.55 1.942-.86 3.172-.34 1.23-.706 2.551-1.078 3.906-.43 1.63-.89 3.258-1.32 4.891-.46 1.66-.863 3.137-1.23 4.398-.188.676-.371 1.293-.493 1.817-.156.55-.277.984-.37 1.289-.063.187-.063.309-.063.434 0 .613.402 1.011 1.23 1.199.246.09.493.12.711.12.582 0 .953-.276 1.137-.89.309-1.23.586-2.152.77-2.77.12-.491.308-.769.613-.89.277-.094.586-.156.953-.156 1.969.031 3.476.031 4.46.031.31 0 .618.063.927.184.304.125.52.492.707 1.047l.738 2.863c.121.55.738.707 1.781.43.832-.184 1.262-.555 1.262-1.079 0-.09-.031-.214-.059-.336-2.37-8.738-4.125-15.32-5.293-19.687a.58.58 0 0 1-.062-.219c-.031-.058-.059-.09-.09-.152l-.246-.309c-.094-.09-.188-.183-.277-.246-.125-.058-.247-.12-.372-.183l-.367-.063zm-.032 7.57c.062-.278.309-.493.676-.618.062 0 .125-.031.187-.031.246 0 .461.215.614.617.246.953.492 1.906.77 2.828l.737 2.832c.032.121.063.305.063.551v.277c-.031.403-.402.586-1.078.586-.43 0-.86-.03-1.262-.03h-1.262c-.12 0-.367-.032-.738-.153-.246-.063-.367-.278-.367-.617 0-.184.031-.399.12-.645.247-.922.493-1.879.77-2.8.247-.923.493-1.876.77-2.798zm3.969-11.508c-.063 0-.094-.032-.094-.032-.027 0-.059-.027-.09-.027h-.062l-.032.027c-.03 0-.062.032-.062.032-.027 0-.059.03-.059.03l-.062.063c-.031.032-.031.063-.031.094v.059c-.032.03-.032.062 0 .093 2.214 8.336 3.906 14.582 5.015 18.735 0 .031 0 .031.031.031v.031l.122.121c0 .032.03.032.062.032.031.03.063.03.09.03 0 0 .031 0 .062-.03h.094l.063-.063.058-.062s.031-.028.031-.059c0 0 .032-.031.032-.094v-.062c-.032-.031-.032-.059-.032-.09-2.214-8.309-3.906-14.52-5.011-18.672v-.031l-.032-.031s-.03-.032-.03-.063zM200.12 145.96h-.156.031s-.031.028-.121.028c-.156.031-.246.062-.309.062-.12.063-.215.125-.34.184-.12.094-.214.187-.273.246-.125.125-.187.219-.219.34-.058.125-.12.246-.152.371-.031 8.828-.031 15.441-.031 19.871 0 .309.093.582.34.828.214.246.492.403.859.492.46.125.894.094 1.262-.152.37-.246.586-.676.675-1.293v-9.352c0-.398.188-.707.555-.953.371-.214.649 0 .832.618 1.32 4.55 2.336 7.964 3.016 10.242l.058.183c0 .063.032.125.094.188l.246.305.309.246c.09.062.215.125.367.125a.81.81 0 0 0 .371.09h2.305c.062 0 .156 0 .215-.028.062 0 .125 0 .187-.031a1.85 1.85 0 0 0 .367-.156c.125-.059.215-.121.309-.215a.828.828 0 0 0 .246-.309c.062-.09.121-.215.184-.336 1.293-4.43 2.246-7.754 2.921-10 .125-.367.372-.582.77-.676.371-.062.555.184.617.707v27.04c0 .093 0 .156.031.214.09.309.336.555.739.68.183.121.43.152.675.152.184 0 .368-.03.583-.093.402-.09.68-.274.863-.52.152-.246.246-.492.246-.738v-36.977l-.063-.183c-.062-.125-.09-.246-.152-.371-.062-.121-.156-.215-.215-.336-.094-.063-.187-.157-.308-.246-.125-.063-.215-.094-.34-.157a1.762 1.762 0 0 0-.399-.062h-.37c-.614 0-1.075-.028-1.352-.028h-.215l-.184.06c-.125.062-.246.093-.37.155a1.068 1.068 0 0 0-.31.215.78.78 0 0 0-.246.309c-.058.12-.12.215-.183.336a2487.421 2487.421 0 0 0-4.367 14.89c-.246.614-.618.891-1.078.797-.493-.09-.801-.367-.922-.828a3901.008 3901.008 0 0 1-4.336-14.797c-.032-.062-.063-.125-.063-.215-.031-.062-.062-.093-.094-.156a3.115 3.115 0 0 1-.277-.305 1.59 1.59 0 0 0-.277-.246c-.121-.062-.246-.093-.367-.156-.125 0-.278-.031-.399-.059zm18.395-2.523h-3.754c-.645 0-1.168.121-1.536.367-.433.246-.738.524-.957.832a4.09 4.09 0 0 0-.46.985c-.122.34-.184.554-.247.675v.032l-.03.062c-1.231 4.246-2.184 7.445-2.798 9.567v.03l-.031.032v.184c0 .03 0 .062.031.062l.063.059.058.062c0 .032.032.032.063.032h.094c0 .03.03.03.058 0h.094l.062-.063.063-.059s0-.03.027-.062c0 0 0-.031.032-.094v-.062c1.23-4.211 2.183-7.383 2.8-9.504l.032-.031v-.032c.062-.183.152-.43.246-.707.062-.277.183-.554.367-.8.187-.247.402-.461.707-.645.277-.184.71-.277 1.262-.277h3.754c.585 0 1.015.125 1.324.308.277.184.492.43.613.676.125.246.215.523.246.77 0 .246.031.43.031.554v25.594c0 .031.032.059.032.059l.062.062c0 .031 0 .063.059.063 0 .03.031.03.062.03 0 .032.031.032.063.032h.093s.028-.031.09-.031c0 0 .032-.031.063-.031l.062-.063s0-.031.032-.09c0 0 0-.031.027-.062V146.39c0-.094-.027-.308-.027-.648a4.722 4.722 0 0 0-.309-.985c-.184-.336-.492-.644-.895-.922-.398-.246-.953-.398-1.628-.398zM226.606 145.96c-.03 0-.062.028-.125.028-.062 0-.062 0-.03-.028h.03s-.03.028-.12.028c-.126.031-.216.062-.278.062-.125.063-.246.157-.34.215a.905.905 0 0 0-.309.246c-.09.094-.152.188-.214.309-.059.125-.121.246-.153.371 0 8.86-.031 15.473-.031 19.871v.184c0 .093.031.152.063.214.03.125.09.215.152.34.062.121.125.246.215.336a.822.822 0 0 0 .308.246c.094.063.215.125.34.157.121.062.246.09.399.09.125 0 .246 0 .37-.028 3.938.027 6.919.027 8.919.027.554 0 .863-.492.925-1.503v-.188c0-.86-.37-1.352-1.046-1.445h-6.032c-.246 0-.55-.032-.922-.153-.367-.125-.554-.586-.554-1.414v-3.507c0-.372.062-.739.187-1.11.09-.367.52-.582 1.258-.582h4.215c.277.031.492-.094.68-.402.12-.246.214-.551.246-.922a2.808 2.808 0 0 0-.188-1.23c-.183-.368-.43-.587-.738-.587h-4.184c-.246 0-.523-.027-.89-.152-.399-.12-.586-.613-.586-1.476v-3.168c0-.309.062-.676.187-1.079.121-.367.582-.582 1.414-.582h5.938c.215 0 .398-.125.582-.37.156-.247.246-.614.308-1.106 0-.492-.062-.895-.214-1.2a1.036 1.036 0 0 0-.801-.464c-4.492 0-7.504 0-8.98-.028zm6.153-2.187h-6.89c-.34 0-.68.062-1.017.187a2.255 2.255 0 0 0-.984.645c-.309.309-.555.707-.738 1.2-.215.491-.309 1.109-.309 1.784v16.735c0 .031 0 .031.031.031 0 .031 0 .063.032.09 0 .031 0 .062.03.062 0 .032.032.032.06.032l.062.062h.156c.028 0 .059 0 .09-.031 0 0 .031 0 .063-.031l.062-.063s.031-.031.031-.058c0 0 .028-.032.028-.094v-16.735c0-.617.062-1.136.246-1.57.156-.398.37-.707.617-.953.215-.246.46-.398.77-.523.246-.06.523-.122.77-.122h6.948s.032 0 .032-.03c.03 0 .062 0 .093-.032 0 0 .032 0 .063-.031l.058-.063s0-.027.032-.058v-.247l-.059-.062-.125-.125zM258.66 147.191c0-.8-.554-1.172-1.632-1.14-1.106.062-1.598.523-1.477 1.386l-.09 12.55c0 .462-.187.766-.554.954-.403.184-.707.031-.953-.492a1687.52 1687.52 0 0 1-5.293-13.477l-.063-.183c-.059-.063-.09-.09-.121-.153l-.277-.277c-.121-.094-.215-.152-.309-.215-.121-.062-.246-.094-.367-.125-.156 0-.278-.031-.403-.031h-1.78c-.063 0-.126.031-.188.031a3 3 0 0 1-.336.156c-.125.059-.246.153-.34.215a1.79 1.79 0 0 0-.246.309 1.08 1.08 0 0 0-.184.367c-.062.125-.062.246-.062.371 0 .152 0 .273.031.398-.031 8.829-.031 15.442-.031 19.872 0 .246.125.43.402.617.246.183.645.277 1.137.277.46.027.832-.062 1.105-.277.246-.188.434-.461.492-.77V155.68c-.058-.43.094-.738.493-.89.402-.157.71 0 .925.46 2.153 5.504 3.75 9.63 4.86 12.395l.062.188c0 .058.059.12.121.152a.615.615 0 0 0 .278.277c.062.094.183.153.308.215.121.063.246.125.368.125.125.027.246.027.402.027h2.246c.059 0 .152 0 .215-.027.09-.062.215-.094.336-.156.125-.063.215-.121.34-.215l.246-.309c.062-.12.093-.246.152-.367l.094-.37c0-.122-.031-.278-.031-.4.062-9.78.093-16.335.125-19.593zm-13.32-3.445h-.094c-.308 0-.644.058-1.015.12-.399.126-.8.278-1.168.524a3.022 3.022 0 0 0-.953 1.016c-.309.46-.461.984-.461 1.597v25.75c0 .06.031.09.031.09l.059.063c0 .031 0 .062.062.062 0 0 .031.032.063.032h.152s.031 0 .094-.032c0 0 .031 0 .062-.03l.059-.063s0-.032.031-.063c0 0 0-.031.031-.09v-25.687c0-.524.125-.953.371-1.293a2.75 2.75 0 0 1 .766-.797 3.545 3.545 0 0 1 1.91-.555h1.781c1.11 0 1.88.215 2.34.645.43.433.739.832.922 1.199l2.77 7.293v.062l.031.028.062.062c0 .031.028.031.06.031 0 .032.03.032.062.032 0 .031.03.031.093.031 0 0 .032 0 .059-.031h.094l.125-.125s0-.028.027-.059v-.246a460.538 460.538 0 0 1-2.797-7.324c-.183-.43-.586-.922-1.14-1.477-.583-.492-1.477-.765-2.708-.765zM268.103 147.527c0-.8-.555-1.168-1.602-1.137-1.043.063-1.566.524-1.535 1.383 0 6.46-.031 11.32-.031 14.55 0 1.137.215 2.122.676 2.985.43.86 1.015 1.54 1.722 2.031a6.216 6.216 0 0 0 2.246 1.016c.77.184 1.508.246 2.247.246.8 0 1.628-.094 2.43-.34a6.968 6.968 0 0 0 2.152-1.136c.648-.493 1.168-1.141 1.601-1.942.367-.738.551-1.535.551-2.43v-15.226c0-.707-.55-1.074-1.598-1.137-.062 0-.125-.031-.152-.031-.957.031-1.418.46-1.387 1.293v15.043a1 1 0 0 0 .031.246c-.062.367-.152.707-.277.953-.121.246-.367.492-.676.738-.308.246-.707.461-1.199.614a4.828 4.828 0 0 1-1.476.214c-.493 0-.985-.058-1.477-.183-.492-.094-.895-.246-1.2-.492a2.075 2.075 0 0 1-.769-.86c-.183-.34-.277-.863-.277-1.601zm12.613.8h-.215l-.03.032c-.063.031-.095.062-.095.062-.03 0-.03.028-.03.059-.032.031-.032.063-.032.063-.031.03-.031.062-.031.062v14.61c0 .34-.09.925-.215 1.722-.153.8-.524 1.633-1.137 2.434-.617.828-1.539 1.535-2.77 2.12-1.23.614-2.984.829-5.257.708h-.032c-.03 0-.03.031-.03.031h-.095l-.12.121c-.032.031-.032.063-.032.063-.031.03-.031.062-.031.062v.09c0 .031 0 .062.031.094 0 .031 0 .062.031.062l.059.063c0 .027.031.027.062.027 0 .031.032.031.063.031h.094c.367.032.707.032 1.043.032 1.847 0 3.324-.247 4.492-.801 1.355-.645 2.34-1.414 3.015-2.305.676-.89 1.075-1.785 1.231-2.707.152-.863.246-1.477.246-1.848v-14.64c-.031 0-.031-.031-.031-.094l-.063-.059s-.031-.03-.031-.062c-.059 0-.09 0-.09-.031zm0 0"/></svg>