<?xml version="1.0" standalone="no"?>
<!DOCTYPE svg PUBLIC "-//W3C//DTD SVG 20010904//EN"
 "http://www.w3.org/TR/2001/REC-SVG-20010904/DTD/svg10.dtd">
<svg version="1.0" xmlns="http://www.w3.org/2000/svg"
 width="500.000000pt" height="500.000000pt" viewBox="0 0 500.000000 500.000000"
 preserveAspectRatio="xMidYMid meet">
<metadata>
Created by potrace 1.16, written by Peter Selinger 2001-2019
</metadata>
<g transform="translate(0.000000,500.000000) scale(0.100000,-0.100000)"
fill="#000000" stroke="none">
<path d="M2495 4625 c-78 -13 -85 -16 -170 -56 -75 -36 -152 -103 -206 -180
-40 -56 -44 -59 -84 -59 -43 0 -127 -25 -185 -55 -44 -23 -127 -101 -156 -147
-68 -106 -72 -252 -12 -361 47 -83 152 -168 234 -188 48 -12 57 -28 69 -124 3
-27 10 -74 15 -102 6 -29 14 -77 19 -105 23 -129 19 -120 60 -115 20 3 79 15
131 26 76 17 128 21 260 20 168 0 350 -24 357 -45 3 -10 -37 -21 -162 -44 -33
-6 -124 -14 -202 -17 -79 -3 -143 -9 -143 -13 0 -13 321 -22 425 -12 206 20
224 34 250 197 8 44 21 123 30 175 9 52 20 115 23 140 6 39 11 45 32 48 135
14 257 91 301 187 25 55 25 153 0 208 -38 83 -134 150 -234 163 -42 6 -45 9
-57 48 -51 171 -110 261 -220 331 -78 50 -133 71 -220 85 -74 11 -64 12 -155
-5z m166 -70 c169 -58 275 -173 325 -349 15 -54 16 -146 2 -266 -3 -27 17 -36
58 -26 33 9 54 64 54 142 0 35 4 64 9 64 49 0 152 -91 177 -156 20 -52 15
-151 -10 -199 -25 -49 -78 -94 -130 -109 -45 -14 -54 -13 -130 8 -44 13 -103
29 -131 37 -77 21 -325 17 -395 -7 -55 -19 -67 -41 -20 -37 197 17 271 13 402
-20 87 -22 87 -22 71 -119 -36 -226 -50 -305 -58 -317 -4 -8 -40 -4 -181 19
-78 13 -338 13 -401 0 -115 -23 -158 -28 -167 -20 -5 5 -15 49 -22 97 -25 170
-32 212 -38 222 -13 21 7 41 43 42 50 1 132 30 145 52 14 23 -9 40 -44 32 -14
-4 -68 -9 -122 -12 -88 -5 -101 -3 -151 20 -114 52 -196 159 -204 270 -9 110
33 202 126 275 48 38 151 79 170 68 4 -3 -1 -45 -11 -93 -10 -48 -18 -110 -16
-137 3 -50 4 -51 36 -54 56 -6 72 18 72 107 0 125 46 241 133 337 56 62 97 89
181 120 72 27 164 31 227 9z"/>
<path d="M950 2941 c-19 -10 -44 -34 -55 -52 -19 -33 -20 -55 -23 -794 -2
-418 0 -785 3 -815 6 -45 13 -61 45 -92 l38 -38 1533 0 c1483 0 1535 1 1565
19 67 41 65 2 62 900 l-3 809 -25 27 c-55 59 52 55 -1592 55 -1457 0 -1515 -1
-1548 -19z m2878 -888 l2 -793 -1330 0 -1330 0 0 788 c0 434 3 792 7 795 3 4
601 6 1327 5 l1321 -3 3 -792z m197 172 c24 -23 25 -29 25 -165 0 -136 -1
-142 -25 -165 -13 -14 -36 -25 -50 -25 -14 0 -37 11 -50 25 -24 23 -25 29 -25
163 0 126 2 142 21 166 27 34 71 35 104 1z"/>
<path d="M1885 2648 c-227 -490 -240 -520 -240 -593 0 -74 -5 -59 110 -310 17
-38 58 -128 90 -200 63 -140 79 -165 105 -165 20 0 40 19 40 38 0 8 -31 83
-69 166 -38 83 -79 174 -91 201 -12 28 -43 94 -67 149 -35 75 -44 106 -40 131
3 18 65 162 137 320 142 310 149 335 89 335 -28 0 -33 -6 -64 -72z"/>
<path d="M3017 2713 c-18 -17 2 -71 100 -283 102 -218 163 -359 163 -377 0
-20 -40 -113 -184 -426 -47 -104 -86 -196 -86 -206 0 -29 27 -46 53 -34 22 10
51 71 234 478 84 188 84 191 -8 394 -39 86 -81 179 -93 206 -115 254 -116 255
-151 255 -12 0 -25 -3 -28 -7z"/>
<path d="M2382 2595 c-363 -82 -549 -478 -377 -804 67 -127 165 -214 303 -269
60 -23 80 -26 192 -26 112 0 132 3 192 26 332 131 465 506 289 811 -62 108
-191 211 -310 248 -87 27 -208 33 -289 14z m243 -40 c100 -26 165 -63 241
-139 106 -106 154 -220 154 -366 0 -145 -50 -267 -152 -368 -205 -205 -533
-206 -737 -1 -99 99 -151 224 -151 364 0 154 54 279 167 385 128 120 310 168
478 125z"/>
<path d="M2266 2323 c-3 -3 -6 -48 -6 -98 0 -86 2 -93 26 -116 l26 -24 -7
-166 c-4 -91 -4 -176 0 -188 14 -47 96 -45 111 2 3 11 3 94 -1 186 l-7 166 26
24 c24 23 26 30 26 117 0 86 -9 118 -28 99 -4 -4 -8 -45 -9 -92 -2 -77 -4 -88
-28 -113 l-26 -28 9 -168 c7 -136 6 -172 -5 -184 -11 -13 -15 -13 -27 0 -11
12 -11 45 -4 184 l10 168 -31 32 c-29 30 -31 36 -31 113 0 75 -7 102 -24 86z"/>
<path d="M2603 2320 c-32 -13 -55 -66 -61 -140 -4 -57 -1 -69 19 -95 23 -29
24 -36 24 -200 l0 -169 28 -14 c22 -11 32 -11 55 0 l27 14 0 169 c0 161 1 172
23 199 35 45 27 164 -16 215 -20 24 -67 34 -99 21z m70 -45 c9 -8 20 -37 26
-65 12 -56 3 -92 -29 -119 -19 -15 -20 -23 -11 -176 7 -132 6 -163 -5 -175
-12 -13 -16 -13 -28 0 -10 12 -12 46 -5 175 l8 160 -24 23 c-20 18 -25 33 -25
72 0 52 14 100 33 112 19 12 44 9 60 -7z"/>
<path d="M2756 2282 c-3 -5 6 -24 19 -42 60 -82 76 -224 36 -315 -12 -28 -36
-67 -53 -88 -22 -28 -27 -42 -19 -50 16 -16 66 35 99 103 24 49 27 66 27 160
0 102 -1 107 -36 170 -33 61 -60 83 -73 62z"/>
<path d="M2192 2255 c-92 -117 -78 -349 28 -450 22 -21 33 -26 41 -18 8 8 3
22 -19 50 -53 66 -75 129 -76 213 0 64 5 85 33 144 21 44 30 71 23 78 -6 6
-17 0 -30 -17z"/>
<path d="M946 987 c-17 -12 -90 -236 -81 -245 6 -6 8 2 45 123 16 55 37 106
47 112 22 16 115 17 131 1 9 -9 12 -86 12 -285 0 -175 4 -273 10 -273 6 0 10
96 10 268 0 320 2 312 -94 312 -35 0 -70 -6 -80 -13z"/>
<path d="M3624 982 c-30 -20 -34 -55 -34 -311 0 -167 4 -261 10 -261 6 0 10
96 10 269 0 308 -2 301 79 301 65 0 68 -4 132 -169 5 -13 12 -21 15 -19 7 8
-55 160 -73 181 -12 12 -31 17 -72 17 -31 0 -61 -4 -67 -8z"/>
<path d="M664 937 c-2 -7 -3 -107 -2 -222 l3 -210 25 0 25 0 3 113 c2 80 6
112 15 112 7 0 27 -50 46 -114 19 -66 40 -117 48 -120 25 -10 71 -7 79 5 4 7
21 59 38 117 18 58 37 107 44 110 9 3 12 -67 14 -285 l3 -288 25 0 25 0 0 395
0 395 -40 0 -40 0 -47 -159 c-47 -160 -60 -188 -77 -171 -5 6 -28 75 -52 155
-23 80 -46 153 -51 163 -10 20 -76 24 -84 4z"/>
<path d="M1202 938 c-17 -17 -17 -419 0 -436 8 -8 48 -12 114 -12 97 0 103 1
110 22 10 33 -19 48 -97 48 -72 0 -79 5 -79 58 0 65 8 72 70 72 50 0 60 3 65
20 11 34 -12 50 -71 50 -53 0 -53 0 -59 34 -7 37 1 77 19 88 6 4 42 8 79 8
l68 0 -3 28 -3 27 -100 3 c-70 2 -104 -1 -113 -10z"/>
<path d="M1574 935 c-11 -29 4 -45 43 -45 68 0 68 1 71 -205 3 -151 6 -187 18
-192 8 -3 21 0 29 7 12 10 15 46 15 196 0 205 -6 189 75 196 25 3 30 7 30 28
l0 25 -138 3 c-116 2 -138 0 -143 -13z"/>
<path d="M2082 938 c-14 -18 -123 -418 -116 -429 3 -5 16 -9 29 -9 19 0 26 9
38 43 l14 42 69 0 69 0 13 -42 c11 -35 19 -43 37 -43 13 0 27 5 30 10 6 10
-85 368 -105 418 -11 25 -60 31 -78 10z"/>
<path d="M2732 938 c-9 -9 -12 -65 -12 -209 0 -109 3 -204 6 -213 8 -21 50
-21 58 0 3 9 6 61 6 116 0 129 14 126 55 -13 17 -57 34 -110 38 -116 9 -14 65
-17 85 -5 7 5 26 55 42 112 30 106 45 135 55 109 3 -8 6 -138 7 -289 l3 -275
25 0 25 0 0 395 0 395 -37 3 c-46 4 -44 7 -98 -178 -23 -80 -46 -149 -51 -155
-17 -17 -30 11 -77 171 l-47 159 -35 3 c-19 2 -41 -3 -48 -10z"/>
<path d="M3273 944 c-20 -8 -18 -427 1 -443 9 -8 48 -11 112 -9 l99 3 3 27 c4
32 -8 36 -103 40 l-60 3 -3 39 c-2 22 -1 50 2 63 6 21 12 23 61 23 43 0 56 4
64 19 17 31 -7 50 -69 53 l-55 3 -3 50 c-4 64 10 75 101 75 l68 0 -3 28 -3 27
-100 2 c-55 1 -106 -1 -112 -3z"/>
<path d="M3652 938 c-9 -9 -12 -73 -12 -224 0 -207 1 -213 21 -219 12 -4 25
-3 30 2 4 4 10 67 11 138 2 101 6 130 17 130 8 0 33 -52 64 -130 27 -71 55
-133 61 -138 6 -4 27 -6 46 -5 35 3 35 4 42 58 3 30 6 128 7 216 1 136 -2 164
-15 175 -11 9 -20 10 -32 2 -14 -8 -17 -32 -20 -152 -2 -103 -6 -141 -15 -141
-6 0 -36 62 -66 138 -30 75 -58 143 -64 150 -12 15 -59 16 -75 0z"/>
<path d="M4066 925 c-8 -22 -8 -293 0 -334 17 -81 112 -121 198 -82 70 31 77
55 74 259 l-3 167 -24 3 c-13 2 -28 -2 -32 -10 -5 -7 -9 -88 -9 -180 0 -187
-1 -188 -72 -188 -65 0 -67 6 -70 200 l-3 175 -26 3 c-17 2 -29 -3 -33 -13z"/>
</g>
</svg>
